# xmcd CD database file
#
# Track frame offsets:
#	150
#	16082
#	34563
#	52633
#	67281
#	79823
#	101898
#	113542
#	124866
#	141070
#
# Disc length: 2154 seconds
#
# Revision: 0
# Processed by: cddbd v1.5.2PL0 Copyright (c) Steve Scherf et al.
# Submitted via: CDex 1.70beta2
#
DISCID=7b08680a
DTITLE=Amy Winehouse  - Smooth Jazz All Starsr - Amy Winehouse Smooth Jazz Tribute
DYEAR=2007
DGENRE=Jazz
TTITLE0=Rehab 
TTITLE1=You know I'm no good 
TTITLE2=Back to black 
TTITLE3=F me pumps 
TTITLE4=Tears dry on their own 
TTITLE5=In my bed 
TTITLE6=Love is a losing game
TTITLE7=Me and Mr. Jones 
TTITLE8=Wake up alone 
TTITLE9=Help yourself 
EXTD=YEAR: 2007
EXTT0=
EXTT1=
EXTT2=
EXTT3=
EXTT4=
EXTT5=
EXTT6=
EXTT7=
EXTT8=
EXTT9=
PLAYORDER=
